<svg xmlns="http://www.w3.org/2000/svg" version="1.1" viewBox="-5.0 -10.0 110.0 135.0">
 <path d="m93.641 43.75-12.094-1.5625c-0.79297-3.2148-2.0664-6.293-3.7812-9.125l7.4219-9.7031c0.48047-0.625 0.41797-1.5078-0.14062-2.0625l-6.625-6.6562c-0.55469-0.55859-1.4375-0.62109-2.0625-0.14062l-9.7031 7.375c-2.832-1.7148-5.9102-2.9883-9.125-3.7812l-1.5625-12.094c-0.10156-0.78125-0.77344-1.3672-1.5625-1.3594h-4.6875c-0.86328 0-1.5625 0.69922-1.5625 1.5625v21.766h-5.0938c-4.3594 0.015625-8.2578 2.7109-9.8125 6.7812l-2.625 6.9844c-0.53125 1.3906-1.8398 2.3359-3.3281 2.4062-0.11328-0.015625-0.23047-0.015625-0.34375 0l-13.609 3.7812c-4.9219 1.3555-8.3359 5.832-8.3438 10.938v6.9062c0 3.5586 2.8789 6.4453 6.4375 6.4531h6.25c0.94531 3.832 4.3828 6.5234 8.3281 6.5234s7.3828-2.6914 8.3281-6.5234h13.781v21.531c0 0.41406 0.16406 0.8125 0.45703 1.1055s0.69141 0.45703 1.1055 0.45703h4.6875c0.78906 0.007812 1.4609-0.57812 1.5625-1.3594l1.5625-12.094c3.2227-0.77344 6.3086-2.0352 9.1562-3.7344l9.7031 7.4062c0.62109 0.48438 1.5039 0.42969 2.0625-0.125l6.625-6.625c0.55859-0.55469 0.62109-1.4375 0.14062-2.0625l-7.4219-9.7031c1.7227-2.8594 2.9961-5.9609 3.7812-9.2031l12.094-1.5625c0.78125-0.10156 1.3672-0.77344 1.3594-1.5625v-9.375c0.007812-0.78906-0.57812-1.4609-1.3594-1.5625zm-42.391-1.4062c3.6406 0.73828 6.2578 3.9414 6.2578 7.6562s-2.6172 6.918-6.2578 7.6562zm0 18.469c5.3438-0.81641 9.2891-5.4102 9.2891-10.812s-3.9453-9.9961-9.2891-10.812v-7.9375c6.6992 0 12.887 3.5742 16.238 9.375 3.3477 5.8008 3.3477 12.949 0 18.75-3.3516 5.8008-9.5391 9.375-16.238 9.375zm-25.156 14.812c-2.2109 0-4.207-1.332-5.0508-3.375-0.84766-2.043-0.37891-4.3984 1.1836-5.9609s3.918-2.0312 5.9609-1.1836c2.043 0.84375 3.375 2.8398 3.375 5.0508 0 1.4492-0.57422 2.8398-1.6016 3.8672-1.0273 1.0273-2.418 1.6016-3.8672 1.6016zm0-14.062c-4.332 0.011719-7.9805 3.2344-8.5312 7.5312h-6.125c-0.88281 0-1.7266-0.35156-2.3477-0.97656s-0.96875-1.4688-0.96484-2.3516v-6.9062c0.007812-3.6992 2.4805-6.9375 6.0469-7.9219l13.453-3.6875c2.668-0.19531 4.9805-1.918 5.9219-4.4219l2.625-6.9844c1.1172-2.8281 3.8477-4.6875 6.8906-4.6875h5.0625v37.938h-13.516c-0.53516-4.2969-4.1836-7.5234-8.5156-7.5312zm65.781-8.25-11.812 1.5625c-0.65625 0.085938-1.1875 0.57422-1.3281 1.2188-0.74609 3.5938-2.1602 7.0117-4.1719 10.078-0.38672 0.54297-0.38672 1.2695 0 1.8125l7.25 9.4844-4.6875 4.6875-9.4375-7.1562c-0.52734-0.41016-1.2539-0.44141-1.8125-0.078125-3.0625 2.0156-6.4766 3.4336-10.062 4.1875-0.65234 0.13281-1.1484 0.66797-1.2344 1.3281l-1.5625 11.812h-1.7656v-20.375c7.3516-0.62109 13.891-4.9062 17.398-11.398 3.5078-6.4883 3.5078-14.309 0-20.797-3.5078-6.4922-10.047-10.777-17.398-11.398v-20.469h1.7656l1.5625 11.812c0.085937 0.66016 0.58203 1.1953 1.2344 1.3281 3.5859 0.75391 7 2.1719 10.062 4.1875 0.57031 0.34375 1.3008 0.28906 1.8125-0.14062l9.4844-7.2344 4.6875 4.6875-7.25 9.4844c-0.38672 0.54297-0.38672 1.2695 0 1.8125 2.0117 3.0664 3.4258 6.4844 4.1719 10.078 0.14062 0.64453 0.67188 1.1328 1.3281 1.2188l11.812 1.5625z"/>
<text x="0.0" y="117.5" font-size="5.0" font-weight="bold" font-family="Arbeit Regular, Helvetica, Arial-Unicode, Arial, Sans-serif" fill="#000000">Created by iconisme</text><text x="0.0" y="122.5" font-size="5.0" font-weight="bold" font-family="Arbeit Regular, Helvetica, Arial-Unicode, Arial, Sans-serif" fill="#000000">from Noun Project</text></svg>